<svg width="1920" height="408" viewBox="0 0 1920 408" fill="none" xmlns="http://www.w3.org/2000/svg">
<g clip-path="url(#clip0_29_20)">
<g clip-path="url(#clip1_29_20)">
<path d="M0 237.148V408.162H63.0107C110.642 408.162 149.321 369.755 149.321 322.598C149.321 275.442 110.642 237.148 63.0107 237.148H0Z" fill="#6FE5F5"/>
<path d="M235.745 273.169C235.745 333.621 195.345 384.982 139.909 402.141C161.027 382.028 174.226 353.847 174.226 322.599C174.226 261.92 124.3 212.49 63.0107 212.49H0V138.289H99.394C174.571 138.289 235.745 198.741 235.745 273.169Z" fill="#00A9F4"/>
<path d="M356.258 204.536C356.258 238.625 347.764 270.896 332.614 299.19C315.857 331.007 290.836 357.938 260.307 377.141C239.188 390.436 215.545 400.095 190.18 405.095C194.427 402.14 198.558 399.072 202.461 395.89C238.041 366.574 260.651 322.485 260.651 273.169C260.651 185.219 188.344 113.631 99.3941 113.631H6.88136e-05V39.3163L0 0H149.665C263.635 0 356.258 91.8138 356.258 204.536Z" fill="#2A61F1"/>
</g>
<path d="M1547.83 342.132V318.969H1570.37C1584.89 318.969 1587.36 315.263 1592.92 300.439L1600.33 280.982L1539.49 122.857H1566.67L1614.54 248.554L1661.79 122.857H1688.66L1616.08 307.233C1606.2 332.558 1600.33 342.132 1578.09 342.132H1547.83Z" fill="#0D1322"/>
<path d="M1440.47 343.985C1400.32 343.985 1372.22 325.146 1368.2 290.556H1394.15C1398.47 310.322 1416.07 321.44 1442.33 321.44C1475.37 321.44 1493.28 305.998 1493.28 271.717V255.04C1482.78 269.555 1465.8 282.218 1439.24 282.218C1395.69 282.218 1363.57 252.878 1363.57 201.611C1363.57 153.432 1395.69 121.004 1439.24 121.004C1465.8 121.004 1483.71 131.813 1493.28 146.946L1496.68 122.857H1518.61V272.644C1518.61 318.043 1494.52 343.985 1440.47 343.985ZM1441.71 259.672C1472.59 259.672 1493.59 235.892 1493.59 202.228C1493.59 167.638 1472.59 143.549 1441.71 143.549C1410.51 143.549 1389.51 167.329 1389.51 201.611C1389.51 235.892 1410.51 259.672 1441.71 259.672Z" fill="#0D1322"/>
<path d="M1261.95 282.218C1215.94 282.218 1183.82 249.481 1183.82 201.611C1183.82 153.741 1215.94 121.004 1261.95 121.004C1307.97 121.004 1340.09 153.741 1340.09 201.611C1340.09 249.481 1307.97 282.218 1261.95 282.218ZM1261.95 259.672C1293.15 259.672 1314.15 235.274 1314.15 201.611C1314.15 167.947 1293.15 143.549 1261.95 143.549C1230.76 143.549 1209.76 167.947 1209.76 201.611C1209.76 235.274 1230.76 259.672 1261.95 259.672Z" fill="#0D1322"/>
<path d="M1128.18 280.364V64.1771H1153.5V280.364H1128.18Z" fill="#0D1322"/>
<path d="M1019.77 282.218C973.751 282.218 941.632 249.481 941.632 201.611C941.632 153.741 973.751 121.004 1019.77 121.004C1065.79 121.004 1097.9 153.741 1097.9 201.611C1097.9 249.481 1065.79 282.218 1019.77 282.218ZM1019.77 259.672C1050.96 259.672 1071.96 235.274 1071.96 201.611C1071.96 167.947 1050.96 143.549 1019.77 143.549C988.575 143.549 967.574 167.947 967.574 201.611C967.574 235.274 988.575 259.672 1019.77 259.672Z" fill="#0D1322"/>
<path d="M898.988 280.365C868.722 280.365 857.912 267.084 857.912 239.289V146.02H829.499V122.857H857.912V78.6926H883.237V122.857H926.474V146.02H883.237V238.98C883.237 252.26 887.87 257.202 901.458 257.202H926.474V280.365H898.988Z" fill="#0D1322"/>
<path d="M733.674 282.218C699.084 282.218 675.612 264.923 675.612 236.201C675.612 204.699 697.54 187.095 738.924 187.095H785.25V176.286C785.25 154.976 770.735 143.549 746.028 143.549C722.865 143.549 708.967 154.049 705.879 170.109H680.554C684.26 139.225 709.276 121.004 747.263 121.004C787.412 121.004 810.575 141.078 810.575 177.83V246.701C810.575 255.04 813.663 257.202 820.767 257.202H828.796V280.365H814.899C794.824 280.365 786.485 271.099 786.485 256.584V255.966C777.22 270.173 760.852 282.218 733.674 282.218ZM735.527 260.599C767.029 260.599 785.25 242.377 785.25 216.126V208.405H736.454C713.908 208.405 701.246 216.744 701.246 234.656C701.246 251.334 714.526 260.599 735.527 260.599Z" fill="#0D1322"/>
<path d="M566.404 282.218C522.858 282.218 490.739 252.878 490.739 201.611C490.739 153.432 522.858 121.004 566.404 121.004C592.964 121.004 610.877 131.813 620.451 146.946V64.1772H645.776V280.365H623.848L620.451 255.04C609.951 269.555 592.964 282.218 566.404 282.218ZM568.875 259.672C599.759 259.672 620.76 235.892 620.76 202.228C620.76 167.638 599.759 143.549 568.875 143.549C537.682 143.549 516.681 167.329 516.681 201.611C516.681 235.892 537.682 259.672 568.875 259.672Z" fill="#0D1322"/>
<path d="M1901.16 276.041V119.459H1916.91V276.041H1901.16ZM1908.88 86.1049C1903.01 86.1049 1898.07 81.4723 1898.07 75.2955C1898.07 68.8099 1903.01 64.1773 1908.88 64.1773C1915.06 64.1773 1920 68.8099 1920 75.2955C1920 81.4723 1915.06 86.1049 1908.88 86.1049Z" fill="#0D1322"/>
<path d="M1784.05 277.894C1750.69 277.894 1728.77 260.908 1728.77 233.112C1728.77 203.773 1750.38 186.478 1790.53 186.478H1843.65V172.889C1843.65 146.637 1826.98 131.504 1797.64 131.504C1770.77 131.504 1754.4 144.167 1750.38 163.315H1734.63C1738.65 134.901 1762.43 117.606 1798.25 117.606C1837.48 117.606 1859.4 137.681 1859.4 173.506V246.392C1859.4 258.437 1864.04 261.525 1873.3 261.525H1879.17V276.041H1869.91C1852.61 276.041 1844.27 268.629 1844.27 252.26V242.995C1835.93 262.761 1816.17 277.894 1784.05 277.894ZM1785.28 264.305C1822.34 264.305 1843.65 242.686 1843.65 212.42V200.066H1789.3C1760.27 200.066 1744.83 211.493 1744.83 232.186C1744.83 252.26 1760.27 264.305 1785.28 264.305Z" fill="#0D1322"/>
</g>
<defs>
<clipPath id="clip0_29_20">
<rect width="1920" height="408" fill="white"/>
</clipPath>
<clipPath id="clip1_29_20">
<rect width="356.257" height="408.163" fill="white"/>
</clipPath>
</defs>
</svg>
